<!DOCTYPE svg PUBLIC "-//W3C//DTD SVG 1.1//EN" "http://www.w3.org/Graphics/SVG/1.1/DTD/svg11.dtd">
<!-- Uploaded to: SVG Repo, www.svgrepo.com, Transformed by: SVG Repo Mixer Tools -->
<svg version="1.0" id="Layer_1" xmlns="http://www.w3.org/2000/svg" xmlns:xlink="http://www.w3.org/1999/xlink" width="256px" height="256px" viewBox="-17.92 -17.92 99.84 99.84" enable-background="new 0 0 64 64" xml:space="preserve" fill="#000000" stroke="#000000" transform="matrix(-1, 0, 0, 1, 0, 0)rotate(0)" stroke-width="0.96">
<g id="SVGRepo_bgCarrier" stroke-width="0" transform="translate(0,0), scale(1)">
<rect x="-17.92" y="-17.92" width="99.84" height="99.84" rx="49.92" fill="#281E18" strokewidth="0"/>
</g>
<g id="SVGRepo_tracerCarrier" stroke-linecap="round" stroke-linejoin="round" stroke="#CCCCCC" stroke-width="0.768"/>
<g id="SVGRepo_iconCarrier"> <g> <path fill="#C78E3A" d="M39.294,31.296l-7.976,7.976c-0.391,0.391-0.441,1.074-0.051,1.465c0.389,0.391,1.09,0.324,1.48-0.066 l7.96-7.96c0.391-0.391,0.391-1.025,0-1.414C40.317,30.905,39.685,30.905,39.294,31.296z"/> <path fill="#C78E3A" d="M47.293,39.295l-7.976,7.976c-0.391,0.391-0.441,1.074-0.051,1.465c0.389,0.391,1.09,0.324,1.48-0.066 l7.96-7.96c0.391-0.391,0.391-1.025,0-1.414C48.316,38.904,47.684,38.904,47.293,39.295z"/> <path fill="#C78E3A" d="M31.29,23.292l-7.976,7.976c-0.391,0.391-0.441,1.074-0.051,1.465c0.389,0.391,1.09,0.324,1.48-0.066 l7.96-7.96c0.391-0.391,0.391-1.025,0-1.414C32.313,22.901,31.681,22.901,31.29,23.292z"/> <path fill="#C78E3A" d="M62.828,37.172L46.702,21.046l-1.767-1.767C44.974,18.857,45,18.433,45,18.001c0-7.731-6.268-14-14-14 c-0.432,0-1.312,0.069-1.328,0.071c0.001,0-0.006-0.006-0.005-0.005c-4.067,0.384-7.616,2.515-9.916,5.626 c-0.005,0.006-0.009,0.012-0.014,0.019c-0.425,0.577-0.808,1.187-1.142,1.826c-0.033,0.062-0.069,0.124-0.102,0.187 c-0.027,0.054-0.051,0.109-0.077,0.164c-0.116,0.234-0.232,0.469-0.334,0.711c-0.688,1.641-1.069,3.439-1.079,5.328 C17.004,17.951,17,17.976,17,18l0,0v0.001v0.009c0.001,0.614,0.047,1.217,0.124,1.811c0.002-0.001,0.005-0.002,0.007-0.002 c0.2-0.06,0.393-0.136,0.578-0.225c0.063-0.029,0.121-0.068,0.184-0.102c0.111-0.061,0.223-0.12,0.328-0.191 c0.093-0.062,0.179-0.133,0.266-0.202c0.061-0.048,0.123-0.095,0.181-0.147c0.11-0.098,0.211-0.204,0.31-0.313 c0.017-0.019,0.036-0.034,0.053-0.054v-0.005C19.629,17.885,20,16.991,20,16c0-0.619-0.152-1.199-0.404-1.723 c0.249-0.762,0.572-1.488,0.961-2.174C21.455,13.152,22,14.512,22,16c0,3.313-2.687,6-6,6s-6-2.687-6-6 c0-2.916,2.081-5.344,4.838-5.885c-0.4,0.818-0.758,1.662-1.032,2.545C12.72,13.375,12,14.603,12,16 c0,1.018,0.402,1.924,1.031,2.627c0.001,0.012,0.002,0.022,0.002,0.033c0.249,0.277,0.537,0.515,0.853,0.715 c0.017,0.011,0.032,0.024,0.05,0.035l0,0c0.33,0.202,0.692,0.354,1.077,0.452c0.005,0.001,0.01,0.003,0.015,0.005 c0.003,0.001,0.008,0.002,0.011,0.004c0.028,0.006,0.055,0.02,0.084,0.025l0,0h0.001c0,0-0.067-0.687-0.103-1.305 C15.012,18.396,15,18.201,15,18.002V18c0-0.059,0.008-0.115,0.009-0.174c0.022-2.054,0.436-4.01,1.162-5.809 c0.207-0.514,0.446-1.01,0.704-1.495c0.059-0.11,0.113-0.224,0.175-0.333c0.052-0.093,0.11-0.182,0.164-0.273 c0.171-0.291,0.35-0.574,0.537-0.853c0.066-0.099,0.133-0.196,0.2-0.293c0.246-0.347,0.502-0.688,0.773-1.013 c0.007-0.008,0.014-0.016,0.021-0.023c0.28-0.334,0.576-0.654,0.883-0.964c0.043-0.044,0.087-0.087,0.13-0.13 c1.673-1.654,3.707-2.942,5.977-3.734c0.72-0.252,1.458-0.461,2.221-0.607c0.986-0.19,2.003-0.298,3.045-0.298 c8.837,0,16,7.163,16,16c0,1.042-0.107,2.059-0.298,3.045l1.656,1.655C48.764,21.201,49,19.629,49,18c0-9.94-8.059-18-18-18 c-1.663,0-3.266,0.244-4.793,0.666C25.557,0.236,24.791,0,24,0H4C1.791,0,0,1.791,0,4v20c0,1.061,0.422,2.078,1.172,2.828l36,36 C37.952,63.609,38.977,64,40,64s2.048-0.391,2.828-1.172l20-20C64.391,41.267,64.391,38.733,62.828,37.172z M42.965,17.309 L31.692,6.036C37.765,6.383,42.617,11.235,42.965,17.309z M21.85,34.146c-1.17-1.17-1.127-3.117,0.042-4.286l7.984-7.984 c1.17-1.17,3.073-1.169,4.243,0.001c1.169,1.169,1.169,3.073-0.001,4.243h0.002l-7.992,7.99 C24.958,35.28,23.018,35.316,21.85,34.146z M29.854,42.15c-1.17-1.17-1.127-3.117,0.042-4.286l7.984-7.984 c1.17-1.17,3.073-1.169,4.243,0.001c1.169,1.169,1.169,3.073-0.001,4.243h0.002l-7.992,7.99 C32.962,43.284,31.021,43.32,29.854,42.15z M50.123,42.123l-7.992,7.99c-1.17,1.17-3.11,1.206-4.278,0.036 c-1.17-1.17-1.127-3.117,0.042-4.286l7.984-7.984c1.17-1.17,3.073-1.169,4.243,0.001c1.169,1.169,1.169,3.073-0.001,4.243H50.123z"/> </g> </g>
</svg>